<svg version="1.1" xmlns="http://www.w3.org/2000/svg" xmlns:xlink="http://www.w3.org/1999/xlink" width="320" height="320"><defs/><g transform="scale(2,2)"><g id="background-ae1e5b6e"><rect fill="white" stroke="none" x="0" y="0" width="160" height="160" class="dcg-svg-background"/></g><g id="background-images-ae1e5b6e"/><g id="graphpaper-ae1e5b6e"><g id="axis-ae1e5b6e"><g><g><path fill="none" stroke="rgb(0,0,0)" class="dcg-svg-tickmark" paint-order="fill stroke markers" d="" stroke-opacity="0.9" stroke-miterlimit="2" stroke-width="2" stroke-dasharray=""/></g></g></g></g><g id="expressions-ae1e5b6e"><g id="sketch-ae1e5b6e"><title>Expression 1</title><path fill="#c74440" stroke="none" paint-order="stroke fill markers" d="" fill-opacity="0.4"/><g><path fill="none" stroke="#c74440" class="dcg-svg-curve" paint-order="fill stroke markers" d=" M 51.64788500638869 168 L 51.64788500638869 168 L 52.265625000000014 164.4666621732968 L 54.10156250000001 154.42997551056573 L 55.898437500000014 145.0518573666382 L 57.65625000000002 136.30359664512298 L 59.37499999999999 128.15710640389838 L 61.0546875 120.58492385511161 L 62.69531249999999 113.56021036517964 L 64.29687500000001 107.05675145478861 L 65.859375 101.04895679889435 L 67.3828125 95.51186022672168 L 68.8671875 90.42111972176497 L 70.31249999999999 85.753017421788 L 71.71874999999999 81.48445961882386 L 73.08593750000003 77.5929767591749 L 74.4140625 74.05672344341332 L 75.70312500000003 70.85447842638 L 76.95312500000001 67.96564461718579 L 78.203125 65.2898554652717 L 79.4140625 62.900846939036626 L 80.5859375 60.77927025612989 L 81.71875 58.906400788470265 L 82.85156249999999 57.20850256765891 L 83.94531249999999 55.73517759701211 L 85.0390625 54.4249649420954 L 86.09375 53.31602377795329 L 87.14843750000001 52.35875210126939 L 88.2421875 51.52622551384802 L 89.29687500000001 50.87791020050496 L 90.27343749999999 50.41285166873716 L 91.2109375 50.088729715037644 L 92.10937499999999 49.890564636941406 L 93.00781250000001 49.802458761678366 L 93.86718750000001 49.8211690310911 L 94.7265625 49.94057618929638 L 95.625 50.17307755706918 L 96.5625 50.53302868260511 L 97.5390625 51.035409268369165 L 98.5546875 51.69582317109575 L 99.6484375 52.56432501914543 L 100.7421875 53.595939182925235 L 101.79687499999999 54.74518816538328 L 102.89062499999999 56.09720152077578 L 103.984375 57.61232719189837 L 105.078125 59.29056517875108 L 106.21093749999999 61.200694737775706 L 107.3828125 63.360816342784204 L 108.55468750000003 65.70818422860538 L 109.76562500000003 68.33051033118534 L 111.01562500000001 71.24714343287472 L 112.3046875 74.47805647029362 L 113.59374999999997 77.93553750749574 L 114.92187499999999 81.73476126828001 L 116.2890625 85.89694899780503 L 117.6953125 90.44394609549894 L 119.14062499999999 95.39822211505927 L 120.62500000000003 100.78287076445304 L 122.14843749999999 106.62160990591616 L 123.7109375 112.93878155595468 L 125.3125 119.7593518853434 L 126.95312499999999 127.10891121912672 L 128.63281250000003 135.01367403661862 L 130.3125 143.30312393546868 L 132.03125000000003 152.1835621628048 L 133.7890625 161.68245150647908 L 134.90797494196443 168" stroke-linecap="round" stroke-linejoin="round" stroke-miterlimit="10" stroke-width="5" stroke-opacity="0.9" stroke-dasharray=""/></g></g><g id="sketch-ae1e5b6e"><title>Expression 2</title><path fill="none" stroke="#000000" class="dcg-svg-point" paint-order="fill stroke markers" d=" M 34.504676723993605 79.03406086833627 L 34.504676723993605 79.23406086833626 L 34.70467672399361 79.23406086833626 L 34.70467672399361 79.03406086833627" stroke-linecap="round" stroke-linejoin="round" stroke-miterlimit="10" stroke-width="15" stroke-opacity="0.9" stroke-dasharray=""/></g><g id="sketch-ae1e5b6e"><title>Expression 3</title><path fill="#388c46" stroke="none" paint-order="stroke fill markers" d="" fill-opacity="0.4"/><g><path fill="none" stroke="#388c46" class="dcg-svg-curve" paint-order="fill stroke markers" d=" M 28.865211988478233 168 L 28.865211988478233 168 L 40.232286970424795 -8" stroke-linecap="round" stroke-linejoin="round" stroke-miterlimit="10" stroke-width="5" stroke-opacity="0.9" stroke-dasharray=""/></g></g><g id="sketch-ae1e5b6e"><title>Expression 4</title><path fill="#6042a6" stroke="none" paint-order="stroke fill markers" d="" fill-opacity="0.4"/><g><path fill="none" stroke="#6042a6" class="dcg-svg-curve" paint-order="fill stroke markers" d=" M 0 97.01378609777527 L 0 97.01378609777527 L 160 14.344149865436378" stroke-linecap="round" stroke-linejoin="round" stroke-miterlimit="10" stroke-width="5" stroke-opacity="0.9" stroke-dasharray=""/></g></g></g><g id="labels-ae1e5b6e"/></g></svg>