<?xml version="1.0" encoding="utf-8"?>
<svg version="1.1" viewBox="0 0 320 320" xmlns="http://www.w3.org/2000/svg">
  <g transform="scale(2)">
    <rect class="dcg-svg-background" width="160" height="160" fill-opacity="0" stroke="transparent"/>
    <g id="sketch">
      <title>Expression 1</title>
      <path class="dcg-svg-curve" d="m51.648 168v0l0.61774-3.5333 1.8359-10.037 1.7969-9.3781 1.7578-8.7483 1.7187-8.1465 1.6797-7.5722 1.6406-7.0247 1.6016-6.5035 1.5625-6.0078 1.5234-5.5371 1.4844-5.0907 1.4453-4.6681 1.4062-4.2686 1.3672-3.8915 1.3281-3.5363 1.2891-3.2022 1.25-2.8888 1.25-2.6758 1.2109-2.389 1.1719-2.1216 1.1328-1.8729 1.1328-1.6979 1.0938-1.4733 1.0938-1.3102 1.0547-1.1089 1.0547-0.95727 1.0937-0.83253 1.0547-0.64832 0.97656-0.46506 0.9375-0.32412 0.89844-0.19817 0.89844-0.088106 0.85938 0.01871 0.85937 0.11941 0.89844 0.2325 0.9375 0.35995 0.97656 0.50238 1.0156 0.66041 1.0938 0.8685 1.0938 1.0316 1.0547 1.1492 1.0938 1.352 1.0938 1.5151 1.0938 1.6782 1.1328 1.9101 1.1719 2.1601 1.1719 2.3474 1.2109 2.6223 1.25 2.9166 1.2891 3.2309 1.2891 3.4575 1.3281 3.7992 1.3672 4.1622 1.4062 4.547 1.4453 4.9543 1.4844 5.3846 1.5234 5.8387 1.5625 6.3172 1.6016 6.8206 1.6406 7.3496 1.6797 7.9048 1.6797 8.2894 1.7188 8.8804 1.7578 9.4989 1.1189 6.3175" fill="none" stroke="#c74440" stroke-dasharray="" stroke-linecap="round" stroke-linejoin="round" stroke-miterlimit="10" stroke-opacity=".9" stroke-width="5" paint-order="fill stroke markers"/>
    </g>
    <g id="sketch">
      <title>Expression 3</title>
      <path class="dcg-svg-curve" d="m28.865 168v0l11.367-176" fill="none" stroke="#388c46" stroke-dasharray="" stroke-linecap="round" stroke-linejoin="round" stroke-miterlimit="10" stroke-opacity=".9" stroke-width="5" paint-order="fill stroke markers"/>
    </g>
    <g id="a">
      <title>Expression 4</title>
      <path class="dcg-svg-curve" d="m0 97.014v0l160-82.67" fill="none" stroke="#6042a6" stroke-dasharray="" stroke-linecap="round" stroke-linejoin="round" stroke-miterlimit="10" stroke-opacity=".9" stroke-width="5" paint-order="fill stroke markers"/>
    </g>
    <g>
      <title>Expression 2</title>
      <circle cx="34.505" cy="79.034" r="8" d=" M 34.504676723993605 79.03406086833627 L 34.504676723993605 79.23406086833626 L 34.70467672399361 79.23406086833626 L 34.70467672399361 79.03406086833627" stroke-linecap="round" stroke-linejoin="round"/>
    </g>
  </g>
</svg>