<?xml version="1.0" encoding="utf-8"?>
<svg version="1.1" viewBox="0 0 320 320" xmlns="http://www.w3.org/2000/svg">
  <g transform="scale(2)">
    <rect class="dcg-svg-background" width="160" height="160" fill-opacity="0" stroke="transparent"/>
    <g>
      <title>Y axis</title>
      <path class="dcg-svg-axis-line" d="m57 0v160" fill="none" fill-opacity="0" stroke="#000" stroke-dasharray="" stroke-miterlimit="10" stroke-opacity=".9" stroke-width="1.5" paint-order="fill stroke markers"/>
    </g>
    <g>
      <title>X axis</title>
      <path class="dcg-svg-axis-line" d="m0 91h160" fill="none" fill-opacity="0" stroke="#000" stroke-dasharray="" stroke-miterlimit="10" stroke-opacity=".9" stroke-width="1.5" paint-order="fill stroke markers"/>
    </g>
    <g id="sketch" style="">
      <title>Expression 1</title>
      <path class="dcg-svg-curve" d="m20.682 165.5v0l0.99741-6.0017 1.2109-6.8026 1.1719-6.1381 1.1719-5.7155 1.1328-5.1375 1.1328-4.7704 1.0938-4.2702 1.0937-3.9529 1.0938-3.6478 1.0547-3.2401 1.0547-2.9788 1.0547-2.7284 1.0156-2.4011 1.0156-2.1889 1.0156-1.9866 1.0156-1.7941 1.0156-1.6114 1.0156-1.4385 1.0156-1.2755 1.0547-1.1624 1.0938-1.0427 1.1328-0.91805 1.1719-0.79072 1.1719-0.64394 1.1719-0.51223 1.2109-0.40694 1.2891-0.315 1.3672-0.22282 1.5625-0.14453 1.9531-0.067803 5.9375-0.12732 1.5234-0.18055 1.3672-0.2679 1.25-0.35372 1.1719-0.44276 1.1328-0.54474 1.1328-0.67326 1.1328-0.8154 1.1328-0.97115 1.0938-1.0982 1.0547-1.22 1.0156-1.3346 1.0156-1.5013 0.97656-1.6099 0.97656-1.7818 0.97656-1.9624 1.0156-2.2419 1.0156-2.4565 1.0156-2.6809 1.0156-2.9152 1.0547-3.2857 1.0547-3.5599 1.0547-3.8451 1.0938-4.3004 1.0938-4.6311 1.1328-5.1583 1.1328-5.5398 1.1328-5.9349 1.1719-6.5699 1.1719-7.0224 1.2109-7.7479 1.2109-8.2638 0.77758-5.654" fill="none" fill-opacity="0" stroke="#c74440" stroke-dasharray="" stroke-linecap="round" stroke-linejoin="round" stroke-miterlimit="10" stroke-opacity=".9" stroke-width="2.5" paint-order="fill stroke markers"/>
    </g>
    <g id="sketch" style="">
      <title>Expression 3</title>
      <path class="dcg-svg-curve" d="m103.77 164v0l6.4689-168" fill="none" fill-opacity="0" stroke="#6042a6" stroke-dasharray="" stroke-linecap="round" stroke-linejoin="round" stroke-miterlimit="10" stroke-opacity=".9" paint-order="fill stroke markers"/>
    </g>
    <g id="a" style="">
      <title>Expression 4</title>
      <path class="dcg-svg-curve" d="m0 113.54v0l160-70.914" fill="none" fill-opacity="0" stroke="#388c46" stroke-dasharray="" stroke-linecap="round" stroke-linejoin="round" stroke-miterlimit="10" stroke-opacity=".9" paint-order="fill stroke markers"/>
    </g>
    <g style="">
      <title>Expression 5</title>
      <path class="dcg-svg-curve" d="m0 128.94v0l160-93.828" fill="none" fill-opacity="0" stroke="#2d70b3" stroke-dasharray="" stroke-linecap="round" stroke-linejoin="round" stroke-miterlimit="10" stroke-opacity=".9" paint-order="fill stroke markers"/>
    </g>
    <circle cx="107.45" cy="65.772" r="3" rx="2.5"/>
  </g>
</svg>